<svg width="858" height="222" viewBox="0 0 858 222" fill="none" xmlns="http://www.w3.org/2000/svg">
<path d="M96.5107 41.6436L153.474 74.5469L189.037 54.0065L96.5107 0.592599L3.99902 54.0065L39.5438 74.5432L96.5107 41.6436Z" fill="#111515"/>
<path d="M0 60.9376V167.777L92.5079 221.198V180.143L35.541 147.244V81.4742L0 60.9376Z" fill="#111515"/>
<path d="M157.477 81.478V147.244L100.514 180.143V221.198L193.04 167.777V60.9376L157.477 81.478Z" fill="#111515"/>
<path d="M145.471 79.1676L96.5102 50.8888L47.5459 79.1676L96.5102 107.428L145.471 79.1676Z" fill="#111515"/>
<path d="M43.5469 86.0987V142.623L92.5075 170.902V114.359L43.5469 86.0987Z" fill="#111515"/>
<path d="M100.514 114.359V170.902L149.471 142.623V86.0987L100.514 114.359Z" fill="#111515"/>
<path d="M258.946 110.496C263.089 110.496 266.927 109.405 270.445 107.215C273.869 105.092 276.507 102.241 278.362 98.695L283.729 101.004C281.396 105.619 278.045 109.305 273.68 112.055C269.19 114.879 264.28 116.293 258.946 116.293C255.202 116.293 251.623 115.58 248.199 114.133C244.873 112.719 241.936 110.733 239.378 108.19C236.816 105.628 234.839 102.692 233.432 99.3682C231.988 95.9474 231.263 92.3621 231.263 88.6215C231.263 84.8656 231.988 81.2772 233.432 77.8381C234.839 74.5239 236.816 71.6057 239.378 69.0531C241.936 66.4943 244.873 64.5083 248.199 63.0949C251.623 61.654 255.202 60.9382 258.946 60.9382C264.28 60.9382 269.19 62.3516 273.68 65.1754C278.045 67.9291 281.396 71.6118 283.729 76.2298L278.362 78.5357C276.507 74.9656 273.869 72.1236 270.445 70.0187C266.927 67.8346 263.089 66.7502 258.946 66.7502C252.918 66.7502 247.767 68.8825 243.469 73.1349C239.21 77.433 237.072 82.5962 237.072 88.6215C237.072 94.6528 239.21 99.8008 243.469 104.093C247.767 108.357 252.918 110.496 258.946 110.496Z" fill="#111515"/>
<path d="M308.267 73.1349C303.975 77.433 301.83 82.5962 301.83 88.6215C301.83 94.6528 303.975 99.8008 308.267 104.093C312.531 108.357 317.691 110.496 323.744 110.496C329.772 110.496 334.917 108.357 339.188 104.093C343.471 99.8008 345.625 94.6528 345.625 88.6215C345.625 82.5962 343.471 77.433 339.188 73.1349C334.917 68.8825 329.772 66.7502 323.744 66.7502C317.691 66.7502 312.531 68.8825 308.267 73.1349ZM312.955 114.133C309.656 112.719 306.735 110.733 304.173 108.19C301.626 105.628 299.637 102.701 298.224 99.4078C296.761 95.9535 296.027 92.3621 296.027 88.6215C296.027 84.8656 296.761 81.2894 298.224 77.8656C299.637 74.5422 301.626 71.6057 304.173 69.0531C306.735 66.4943 309.656 64.5235 312.955 63.1344C316.385 61.6753 319.973 60.9382 323.744 60.9382C327.488 60.9382 331.073 61.6753 334.497 63.1344C337.79 64.5235 340.726 66.4943 343.279 69.0531C345.853 71.6057 347.839 74.5422 349.228 77.8656C350.69 81.2894 351.418 84.8656 351.418 88.6215C351.418 92.3621 350.69 95.9535 349.228 99.4078C347.839 102.701 345.853 105.628 343.279 108.19C340.726 110.733 337.79 112.719 334.497 114.133C331.073 115.58 327.488 116.293 323.744 116.293C319.973 116.293 316.385 115.58 312.955 114.133Z" fill="#111515"/>
<path d="M373.453 67.8925V93.6384H386.326C389.899 93.6384 392.93 92.3926 395.437 89.8826C397.941 87.3451 399.19 84.3203 399.19 80.7746C399.19 77.2259 397.941 74.198 395.437 71.6941C392.93 69.1597 389.899 67.8925 386.326 67.8925H373.453ZM395.05 96.9222C398.084 98.9144 400.488 101.519 402.267 104.736C404.061 108.028 404.956 111.562 404.956 115.324V115.36H398.965V115.324C398.965 110.901 397.393 107.112 394.255 103.94C391.09 100.776 387.283 99.2068 382.826 99.2068H372.804V115.36H366.81V60.9382H385.936C391.227 60.9382 395.745 62.8176 399.489 66.5492C403.235 70.3081 405.109 74.8072 405.109 80.071C405.109 83.6441 404.17 86.9552 402.294 90.0105C400.503 92.947 398.084 95.2407 395.05 96.9222Z" fill="#111515"/>
<path d="M467.441 116.521L429.16 75.8247V115.36H423.278V60.9778L461.559 101.717V62.0196H467.441V116.521Z" fill="#111515"/>
<path d="M519.131 109.481V115.36H487.32V62.0196H519.131V67.8925H493.193V85.6028H514.102V91.4818H493.193V109.481H519.131Z" fill="#111515"/>
<path d="M544.243 67.8925V93.6384H557.122C560.689 93.6384 563.729 92.3926 566.236 89.8826C568.737 87.3451 569.986 84.3203 569.986 80.7746C569.986 77.2259 568.737 74.198 566.236 71.6941C563.729 69.1597 560.689 67.8925 557.122 67.8925H544.243ZM566.044 97.2877C569.02 99.2494 571.375 101.799 573.111 104.955C574.875 108.181 575.761 111.632 575.761 115.324V115.36H569.879V115.324C569.879 110.989 568.338 107.27 565.271 104.175C562.16 101.074 558.429 99.5084 554.067 99.5084H544.243V115.36H538.37V62.0196H557.122C562.294 62.0196 566.73 63.8564 570.4 67.53C574.068 71.1915 575.905 75.6053 575.905 80.7746C575.905 84.2624 574.985 87.5127 573.157 90.5131C571.387 93.3978 569.02 95.6459 566.044 97.2877Z" fill="#111515"/>
<path d="M613.487 116.293C609.1 116.293 605.122 115.257 601.546 113.17C597.236 110.666 594.378 107.054 592.989 102.344L598.57 100.706C599.532 104.035 601.561 106.557 604.632 108.293C607.209 109.759 610.179 110.496 613.532 110.496C614.047 110.496 614.495 110.484 614.86 110.459C615.235 110.432 615.686 110.368 616.201 110.261C617.66 110.045 618.997 109.658 620.188 109.116C623.652 107.532 625.537 104.815 625.836 100.974C625.988 98.9631 625.397 97.1689 624.054 95.6063C621.97 93.1785 618.622 91.8138 614.014 91.5153C606.273 91.0005 600.662 89.185 597.193 86.084C594.564 83.7355 593.251 80.7107 593.251 77.0127C593.251 72.0292 595.222 68.0326 599.164 65.0261C602.709 62.3089 607.011 60.9382 612.073 60.9382C618.05 60.9382 623.052 63.0644 627.066 67.3016C628.334 68.6601 629.439 70.1741 630.381 71.7946C630.679 72.3246 631.048 73.0801 631.489 74.0701L626.061 76.1171C625.744 75.4195 625.361 74.6854 624.91 73.8964C624.462 73.1258 623.764 72.2546 622.826 71.3194C619.92 68.2733 616.341 66.7502 612.073 66.7502C610.788 66.7502 609.469 66.9056 608.132 67.2345C606.535 67.5727 605.131 68.0996 603.891 68.8246C600.662 70.6889 599.048 73.4182 599.048 77.0127C599.048 82.1484 604.178 85.0362 614.41 85.7185C620.621 86.1328 625.294 88.1767 628.446 91.8138C630.847 94.5888 631.916 97.7934 631.639 101.415C631.252 106.246 629.174 110.027 625.434 112.719C622.123 115.114 618.172 116.293 613.566 116.293H613.487Z" fill="#111515"/>
<path d="M686.852 62.0196V67.8925H667.951V115.36H662.075V67.8925H642.945V62.0196H686.852Z" fill="#111515"/>
<path d="M705.013 73.1349C700.724 77.433 698.576 82.5962 698.576 88.6215C698.576 94.6528 700.724 99.8008 705.013 104.093C709.28 108.357 714.443 110.496 720.496 110.496C726.518 110.496 731.669 108.357 735.928 104.093C740.226 99.8008 742.364 94.6528 742.364 88.6215C742.364 82.5962 740.226 77.433 735.928 73.1349C731.669 68.8825 726.518 66.7502 720.496 66.7502C714.443 66.7502 709.28 68.8825 705.013 73.1349ZM709.704 114.133C706.411 112.719 703.48 110.733 700.931 108.19C698.369 105.628 696.389 102.701 694.973 99.4078C693.513 95.9535 692.779 92.3621 692.779 88.6215C692.779 84.8656 693.513 81.2894 694.973 77.8656C696.389 74.5422 698.369 71.6057 700.931 69.0531C703.48 66.4943 706.411 64.5235 709.704 63.1344C713.131 61.6753 716.716 60.9382 720.496 60.9382C724.237 60.9382 727.822 61.6753 731.246 63.1344C734.539 64.5235 737.466 66.4943 740.028 69.0531C742.599 71.6057 744.588 74.5422 745.977 77.8656C747.439 81.2894 748.17 84.8656 748.17 88.6215C748.17 92.3621 747.439 95.9535 745.977 99.4078C744.588 102.701 742.599 105.628 740.028 108.19C737.466 110.733 734.539 112.719 731.246 114.133C727.822 115.58 724.237 116.293 720.496 116.293C716.716 116.293 713.131 115.58 709.704 114.133Z" fill="#111515"/>
<path d="M807.205 116.521L768.924 75.8247V115.36H763.042V60.9778L801.332 101.717V62.0196H807.205V116.521Z" fill="#111515"/>
<path d="M857.092 109.481V115.36H825.29V62.0196H857.092V67.8925H831.169V85.6028H852.072V91.4818H831.169V109.481H857.092Z" fill="#111515"/>
<path d="M256.492 161.697C256.891 161.346 257.156 161.433 257.468 161.745L258.795 163.159C259.151 163.606 259.151 163.827 258.752 164.226C255.915 167.066 251.435 168.793 247.136 168.793C238.397 168.793 231.258 161.52 231.258 152.701C231.258 143.875 238.397 136.601 247.136 136.601C251.435 136.601 255.915 138.332 258.752 141.169C259.104 141.524 259.064 141.742 258.708 142.141L257.42 143.563C257.069 143.958 256.757 143.958 256.401 143.606C254.449 141.524 251.257 139.707 247.136 139.707C240.218 139.707 234.806 146.001 234.806 152.701C234.806 159.39 240.218 165.692 247.136 165.692C251.257 165.692 254.406 163.874 256.492 161.697Z" fill="#111515"/>
<path d="M285.066 165.692C292.071 165.692 297.393 159.35 297.393 152.701C297.393 146.001 292.071 139.707 285.066 139.707C278.148 139.707 272.739 146.001 272.739 152.701C272.739 159.35 278.148 165.692 285.066 165.692ZM285.066 136.601C293.801 136.601 300.941 143.875 300.941 152.701C300.941 161.52 293.801 168.793 285.066 168.793C276.331 168.793 269.191 161.52 269.191 152.701C269.191 143.875 276.331 136.601 285.066 136.601Z" fill="#111515"/>
<path d="M332.316 168.082C332.095 168.528 331.874 168.793 331.515 168.793H331.163C330.807 168.793 330.63 168.528 330.318 168.082L318.346 144.448L315.731 167.509C315.64 168.039 315.553 168.216 315.023 168.216H312.851C312.361 168.216 312.139 167.995 312.227 167.509L315.952 136.997C315.996 136.689 316.043 136.601 316.351 136.601H316.616C316.797 136.601 316.928 136.645 317.149 136.997L331.341 163.827L345.528 136.997C345.75 136.645 345.884 136.601 346.062 136.601H346.326C346.638 136.601 346.682 136.689 346.725 136.997L350.451 167.509C350.495 167.995 350.317 168.216 349.787 168.216H347.614C347.125 168.216 346.994 168.039 346.947 167.509L344.375 144.401L332.316 168.082Z" fill="#111515"/>
<path d="M382.585 168.082C382.36 168.528 382.139 168.793 381.783 168.793H381.431C381.076 168.793 380.898 168.528 380.586 168.082L368.611 144.448L365.999 167.509C365.909 168.039 365.822 168.216 365.288 168.216H363.115C362.629 168.216 362.408 167.995 362.495 167.509L366.221 136.997C366.264 136.689 366.308 136.601 366.62 136.601H366.885C367.062 136.601 367.193 136.645 367.418 136.997L381.606 163.827L395.797 136.997C396.018 136.645 396.152 136.601 396.33 136.601H396.595C396.903 136.601 396.95 136.689 396.994 136.997L400.72 167.509C400.763 167.995 400.585 168.216 400.052 168.216H397.883C397.393 168.216 397.259 168.039 397.215 167.509L394.643 144.401L382.585 168.082Z" fill="#111515"/>
<path d="M414.759 168.216C414.226 168.216 414.048 168.039 414.048 167.509V137.889C414.048 137.352 414.226 137.175 414.759 137.175H434.493C434.979 137.175 435.157 137.352 435.157 137.889V139.529C435.157 140.059 434.979 140.236 434.493 140.236H417.552V151.014H433.692C434.225 151.014 434.403 151.192 434.403 151.721V153.361C434.403 153.894 434.225 154.072 433.692 154.072H417.552V165.158H434.493C435.023 165.158 435.157 165.336 435.157 165.866V167.509C435.157 168.039 435.023 168.216 434.493 168.216H414.759Z" fill="#111515"/>
<path d="M459.43 153.049C464.708 153.049 467.011 150.524 467.011 146.49C467.011 142.054 463.997 140.189 459.43 140.189H451.891V153.049H459.43ZM463.463 155.668L471.8 167.375C472.155 167.955 471.8 168.216 471.27 168.216H469.184C468.655 168.216 468.295 167.955 467.987 167.509L459.829 156.064H451.891V167.509C451.891 168.082 451.714 168.216 451.18 168.216H449.098C448.565 168.216 448.391 168.129 448.391 167.509V137.889C448.391 137.352 448.565 137.175 449.098 137.175H459.651C464.708 137.175 470.425 139.304 470.425 146.49C470.425 151.769 467.588 154.558 463.463 155.668Z" fill="#111515"/>
<path d="M507.071 161.697C507.474 161.346 507.739 161.433 508.051 161.745L509.378 163.159C509.734 163.606 509.734 163.827 509.335 164.226C506.498 167.066 502.018 168.793 497.719 168.793C488.984 168.793 481.841 161.52 481.841 152.701C481.841 143.875 488.984 136.601 497.719 136.601C502.018 136.601 506.498 138.332 509.335 141.169C509.69 141.524 509.647 141.742 509.291 142.141L508.003 143.563C507.652 143.958 507.34 143.958 506.984 143.606C505.032 141.524 501.844 139.707 497.719 139.707C490.801 139.707 485.389 146.001 485.389 152.701C485.389 159.39 490.801 165.692 497.719 165.692C501.844 165.692 504.989 163.874 507.071 161.697Z" fill="#111515"/>
<path d="M522.125 137.889C522.125 137.352 522.303 137.175 522.836 137.175H524.965C525.495 137.175 525.629 137.352 525.629 137.889V167.509C525.629 168.039 525.495 168.216 524.965 168.216H522.836C522.303 168.216 522.125 168.039 522.125 167.509V137.889Z" fill="#111515"/>
<path d="M552.111 142.496L545.592 156.953H558.674L552.158 142.496H552.111ZM567.235 167.509C567.413 167.904 567.235 168.216 566.789 168.216H564.217C563.774 168.216 563.596 168.039 563.332 167.509L559.874 159.967H544.395L540.934 167.509C540.673 168.039 540.492 168.216 540.006 168.216H537.434C537.035 168.216 536.857 167.904 537.035 167.509L551.491 137.044C551.716 136.688 551.803 136.424 552.068 136.424H552.202C552.423 136.424 552.554 136.688 552.735 137.044L567.235 167.509Z" fill="#111515"/>
<path d="M597.097 165.158C597.627 165.158 597.761 165.336 597.761 165.866V167.509C597.761 168.039 597.627 168.216 597.097 168.216H579.05C578.517 168.216 578.339 168.039 578.339 167.509V137.889C578.339 137.352 578.517 137.175 579.05 137.175H581.132C581.665 137.175 581.843 137.352 581.843 137.889V165.158H597.097Z" fill="#111515"/>
<path d="M630.512 167.509C630.512 168.039 630.334 168.216 629.848 168.216H627.719C627.186 168.216 627.008 168.039 627.008 167.509V137.889C627.008 137.352 627.186 137.175 627.719 137.175H647.406C647.939 137.175 648.117 137.352 648.117 137.889V139.529C648.117 140.059 647.896 140.236 647.406 140.236H630.512V151.014H647.007C647.54 151.014 647.714 151.192 647.714 151.721V153.361C647.714 153.894 647.54 154.072 647.007 154.072H630.512V167.509Z" fill="#111515"/>
<path d="M660.948 137.889C660.948 137.352 661.122 137.175 661.659 137.175H663.789C664.322 137.175 664.453 137.352 664.453 137.889V167.509C664.453 168.039 664.322 168.216 663.789 168.216H661.659C661.122 168.216 660.948 168.039 660.948 167.509V137.889Z" fill="#111515"/>
<path d="M683.132 167.509C683.132 168.039 682.954 168.216 682.421 168.216H680.339C679.809 168.216 679.628 168.039 679.628 167.509V136.957C679.628 136.645 679.719 136.601 680.027 136.601H680.248C680.517 136.601 680.647 136.688 680.825 136.913L701.492 161.567V137.889C701.492 137.309 701.666 137.175 702.199 137.175H704.329C704.858 137.175 704.992 137.309 704.992 137.889V168.438C704.992 168.75 704.905 168.793 704.637 168.793H704.416C704.194 168.793 704.017 168.706 703.752 168.438L683.132 143.646V167.509Z" fill="#111515"/>
<path d="M731.441 142.496L724.926 156.953H738.007L731.488 142.496H731.441ZM746.565 167.509C746.743 167.904 746.565 168.216 746.119 168.216H743.547C743.104 168.216 742.926 168.039 742.662 167.509L739.204 159.967H723.729L720.268 167.509C720.003 168.039 719.825 168.216 719.339 168.216H716.767C716.368 168.216 716.187 167.904 716.368 167.509L730.824 137.044C731.046 136.688 731.133 136.424 731.398 136.424H731.532C731.753 136.424 731.887 136.688 732.065 137.044L746.565 167.509Z" fill="#111515"/>
<path d="M761.303 167.509C761.303 168.039 761.129 168.216 760.596 168.216H758.51C757.98 168.216 757.803 168.039 757.803 167.509V136.957C757.803 136.645 757.89 136.601 758.198 136.601H758.419C758.688 136.601 758.818 136.688 759 136.913L779.663 161.567V137.889C779.663 137.309 779.841 137.175 780.374 137.175H782.5C783.033 137.175 783.164 137.309 783.164 137.889V168.438C783.164 168.75 783.077 168.793 782.812 168.793H782.59C782.369 168.793 782.191 168.706 781.923 168.438L761.303 143.646V167.509Z" fill="#111515"/>
<path d="M821.232 161.697C821.631 161.346 821.9 161.433 822.208 161.745L823.539 163.159C823.895 163.606 823.895 163.827 823.496 164.226C820.659 167.066 816.179 168.793 811.876 168.793C803.145 168.793 796.002 161.52 796.002 152.701C796.002 143.875 803.145 136.601 811.876 136.601C816.179 136.601 820.659 138.332 823.496 141.169C823.851 141.524 823.804 141.742 823.452 142.141L822.165 143.563C821.813 143.958 821.501 143.958 821.145 143.606C819.193 141.524 816.001 139.707 811.876 139.707C804.962 139.707 799.55 146.001 799.55 152.701C799.55 159.39 804.962 165.692 811.876 165.692C816.001 165.692 819.15 163.874 821.232 161.697Z" fill="#111515"/>
<path d="M836.686 168.216C836.152 168.216 835.975 168.039 835.975 167.509V137.889C835.975 137.352 836.152 137.175 836.686 137.175H856.416C856.906 137.175 857.084 137.352 857.084 137.889V139.529C857.084 140.059 856.906 140.236 856.416 140.236H839.479V151.014H855.618C856.152 151.014 856.329 151.192 856.329 151.721V153.361C856.329 153.894 856.152 154.072 855.618 154.072H839.479V165.158H856.416C856.95 165.158 857.084 165.336 857.084 165.866V167.509C857.084 168.039 856.95 168.216 856.416 168.216H836.686Z" fill="#111515"/>
</svg>
