<svg width="685" height="202" viewBox="0 0 685 202" fill="none" xmlns="http://www.w3.org/2000/svg">
<path fill-rule="evenodd" clip-rule="evenodd" d="M90.5048 99.4358C90.5048 127.462 53.4777 201.535 28.0261 201.535C2.57505 201.535 0.996094 127.462 0.996094 99.4358C0.996094 71.4085 2.57505 0.357224 28.0261 0.357224C53.4777 0.357224 90.5048 71.4085 90.5048 99.4358ZM553.397 140.613C558.581 146.095 565.934 148.836 575.456 148.836C576.782 148.836 578.41 148.714 580.338 148.471C582.267 148.349 584.015 148.105 585.582 147.74V132.756C584.497 132.878 583.292 133 581.966 133.121C580.76 133.243 579.736 133.304 578.892 133.304C574.914 133.304 571.72 132.634 569.309 131.294C566.898 129.832 565.15 127.883 564.065 125.447C563.101 123.01 562.619 120.148 562.619 116.859V65.512H584.497V49.2492H562.619V26.5909H545.803V34.6309C545.803 39.0164 544.537 42.5491 542.006 45.2291C539.475 47.9091 536.039 49.2492 531.7 49.2492H528.083V65.512H545.803V117.407C545.803 127.396 548.334 135.131 553.397 140.613ZM264.501 143.171C271.854 147.679 280.232 149.932 289.634 149.932C296.384 149.932 302.472 148.836 307.896 146.643C313.441 144.451 318.202 141.527 322.18 137.872C326.279 134.096 329.292 129.954 331.221 125.447L317.117 118.138C314.345 122.889 310.729 126.787 306.269 129.832C301.809 132.878 296.324 134.4 289.815 134.4C283.908 134.4 278.423 132.939 273.361 130.015C268.418 126.97 264.561 122.767 261.789 117.407C259.785 113.265 258.676 108.635 258.461 103.519H333.029C333.27 102.058 333.451 100.535 333.571 98.9512C333.812 97.2458 333.933 95.723 333.933 94.383C333.933 88.2921 332.848 82.4448 330.678 76.8411C328.629 71.1156 325.616 66.0602 321.638 61.6747C317.78 57.1674 313.019 53.6346 307.353 51.0764C301.809 48.3964 295.42 47.0564 288.187 47.0564C279.267 47.0564 271.191 49.3101 263.958 53.8174C256.846 58.2028 251.181 64.2329 246.962 71.9074C242.864 79.582 240.814 88.353 240.814 98.2203C240.814 107.966 242.924 116.798 247.143 124.716C251.362 132.512 257.148 138.664 264.501 143.171ZM258.812 88.9012C259.296 85.3655 260.228 82.1373 261.608 79.2166C264.26 73.7347 267.936 69.532 272.637 66.6083C277.339 63.6847 282.522 62.2229 288.187 62.2229C293.853 62.2229 298.916 63.6847 303.376 66.6083C307.836 69.532 311.211 73.4911 313.501 78.4857C314.967 81.6829 315.742 85.1548 315.825 88.9012H258.812ZM346.817 49.2492V147.74H363.633V89.4494C363.633 84.0893 364.657 79.5211 366.707 75.7447C368.756 71.8465 371.528 68.862 375.024 66.7911C378.64 64.5983 382.739 63.502 387.319 63.502C391.9 63.502 395.938 64.5983 399.434 66.7911C403.05 68.862 405.822 71.7856 407.751 75.562C409.68 79.3384 410.644 83.9675 410.644 89.4494V147.74H427.641V83.9675C427.641 76.902 426.013 70.5674 422.759 64.9638C419.625 59.3601 415.285 54.9746 409.74 51.8074C404.316 48.6401 398.108 47.0564 391.116 47.0564C383.884 47.0564 377.555 48.8228 372.131 52.3555C368.5 54.6909 365.546 57.6829 363.271 61.3316V49.2492H346.817ZM471.231 149.932C464.842 149.932 459.176 148.775 454.234 146.461C449.412 144.024 445.615 140.735 442.843 136.593C440.07 132.33 438.684 127.457 438.684 121.975C438.684 116.737 439.769 112.047 441.939 107.905C444.229 103.641 447.725 100.048 452.426 97.1239C457.248 94.2003 463.275 92.1294 470.507 90.9112L503.777 85.3635V80.8611C503.777 75.5011 501.788 71.1765 497.81 67.8874C493.953 64.4765 488.83 62.771 482.441 62.771C476.896 62.771 471.954 64.2329 467.614 67.1565C463.395 69.9584 460.261 73.7347 458.212 78.4857L443.566 70.8111C445.374 66.3038 448.267 62.2838 452.245 58.751C456.223 55.0965 460.864 52.2337 466.168 50.1628C471.472 48.0919 477.017 47.0564 482.803 47.0564C490.276 47.0564 496.846 48.5183 502.511 51.4419C508.177 54.2437 512.576 58.2028 515.711 63.3192C518.965 68.3138 520.592 74.1611 520.592 80.8611V147.74H504.138V134.994C502.623 136.962 500.875 138.775 498.895 140.43C495.399 143.354 491.301 145.669 486.6 147.374C481.899 149.08 476.775 149.932 471.231 149.932ZM503.777 105.895V99.6239L474.304 104.616C468.036 105.712 463.456 107.722 460.563 110.646C457.79 113.569 456.404 117.163 456.404 121.427C456.404 125.447 457.971 128.797 461.105 131.477C464.36 134.157 468.398 135.497 473.219 135.497C479.367 135.497 484.671 134.218 489.131 131.66C493.712 128.98 497.268 125.386 499.799 120.879C502.451 116.371 503.777 111.377 503.777 105.895ZM640.7 149.932C631.298 149.932 622.92 147.679 615.567 143.171C608.214 138.664 602.428 132.512 598.209 124.716C593.99 116.798 591.881 107.966 591.881 98.2203C591.881 88.353 593.93 79.582 598.028 71.9074C602.247 64.2329 607.913 58.2028 615.025 53.8174C622.257 49.3101 630.334 47.0564 639.254 47.0564C646.486 47.0564 652.875 48.3964 658.42 51.0764C664.085 53.6346 668.847 57.1674 672.704 61.6747C676.682 66.0602 679.695 71.1156 681.745 76.8411C683.914 82.4448 684.999 88.2921 684.999 94.383C684.999 95.723 684.879 97.2458 684.638 98.9512C684.517 100.535 684.336 102.058 684.095 103.519H609.528C609.742 108.635 610.851 113.265 612.855 117.407C615.627 122.767 619.485 126.97 624.427 130.015C629.49 132.939 634.974 134.4 640.881 134.4C647.39 134.4 652.875 132.878 657.335 129.832C661.795 126.787 665.411 122.889 668.184 118.138L682.287 125.447C680.358 129.954 677.345 134.096 673.246 137.872C669.269 141.527 664.507 144.451 658.962 146.643C653.538 148.836 647.451 149.932 640.7 149.932ZM612.674 79.2166C611.295 82.1373 610.363 85.3655 609.878 88.9012H666.891C666.808 85.1548 666.034 81.6829 664.567 78.4857C662.277 73.4911 658.902 69.532 654.442 66.6083C649.982 63.6847 644.919 62.2229 639.254 62.2229C633.588 62.2229 628.405 63.6847 623.704 66.6083C619.003 69.532 615.326 73.7347 612.674 79.2166ZM98.4383 16.3007C115.23 42.2249 129.408 81.8058 129.417 101.217C129.408 120.627 115.23 160.21 98.4383 186.13C94.4259 192.325 98.2479 198.764 107.736 193.394C151.562 168.609 193.057 123.729 193.106 101.236H193.106L193.106 101.217L193.106 101.198L193.106 101.197C193.057 78.7043 151.562 33.8256 107.736 9.03708C98.2479 3.67031 94.4259 10.1068 98.4383 16.3007Z" fill="#111515"/>
</svg>
