<svg width="701" height="247" viewBox="0 0 701 247" fill="none" xmlns="http://www.w3.org/2000/svg">
<path d="M325.81 167.16C326.563 167.16 327.285 166.861 327.818 166.328C328.35 165.796 328.65 165.073 328.65 164.32V152C328.65 137.507 326.513 124.487 322.24 112.94C318.316 101.915 312.1 91.8465 304 83.4C295.934 75.1869 286.164 68.8443 275.38 64.82C264.193 60.54 251.733 58.4033 238 58.41C219.16 58.41 202.826 62.3267 189 70.16C175.34 77.8059 164.171 89.2243 156.83 103.05C149.23 117.13 145.43 133.59 145.43 152.43C145.43 172.057 149.21 188.897 156.77 202.95C164.066 216.738 175.365 227.994 189.18 235.24C203.226 242.72 219.986 246.46 239.46 246.46C256.32 246.46 271.06 243.907 283.68 238.8C296.3 233.693 306.453 226.493 314.14 217.2C321.171 208.666 325.98 198.524 328.14 187.68C328.226 187.266 328.219 186.839 328.119 186.428C328.019 186.017 327.83 185.634 327.563 185.305C327.297 184.977 326.962 184.712 326.58 184.53C326.199 184.347 325.782 184.252 325.36 184.25H270.69C270.149 184.253 269.62 184.41 269.165 184.702C268.71 184.994 268.347 185.409 268.12 185.9C266.879 188.595 265.095 191.006 262.88 192.98C260.064 195.462 256.769 197.34 253.2 198.5C249.198 199.806 245.009 200.448 240.8 200.4C234.306 200.4 228.763 199.093 224.17 196.48C219.681 193.974 216.014 190.223 213.61 185.68C211.094 180.842 209.829 175.452 209.93 170V170C209.93 169.247 210.229 168.524 210.762 167.992C211.294 167.459 212.016 167.16 212.77 167.16H325.81ZM214.14 117.16C216.815 113.184 220.478 109.973 224.77 107.84C229.297 105.566 234.303 104.407 239.37 104.46C244.45 104.383 249.471 105.546 254 107.85C258.209 110.012 261.772 113.248 264.33 117.23C266.379 120.447 267.665 124.09 268.09 127.88C268.138 128.279 268.101 128.683 267.981 129.067C267.861 129.45 267.661 129.804 267.395 130.104C267.128 130.405 266.801 130.645 266.435 130.81C266.069 130.975 265.671 131.06 265.27 131.06H213C212.594 131.061 212.193 130.974 211.823 130.807C211.453 130.64 211.123 130.396 210.855 130.091C210.587 129.787 210.387 129.428 210.269 129.04C210.151 128.651 210.117 128.242 210.17 127.84C210.655 124.025 212.013 120.374 214.14 117.17V117.16Z" fill="#111515"/>
<path d="M415.42 2.84V240.3C415.42 241.053 415.12 241.776 414.588 242.308C414.055 242.841 413.333 243.14 412.58 243.14H352.73C351.976 243.14 351.254 242.841 350.721 242.308C350.189 241.776 349.89 241.053 349.89 240.3V2.84C349.89 2.08679 350.189 1.36442 350.721 0.831817C351.254 0.299213 351.976 0 352.73 0H412.58C413.333 0 414.055 0.299213 414.588 0.831817C415.12 1.36442 415.42 2.08679 415.42 2.84V2.84Z" fill="#111515"/>
<path d="M531.16 246.47C511.373 246.47 494.437 242.53 480.35 234.65C466.544 227.067 455.273 215.591 447.94 201.65C440.42 187.523 436.66 171.12 436.66 152.44C436.66 133.76 440.42 117.357 447.94 103.23C455.277 89.2921 466.547 77.8169 480.35 70.23C494.437 62.3633 511.373 58.4267 531.16 58.42C550.947 58.4133 567.893 62.3467 582 70.22C595.801 77.8098 607.071 89.2842 614.41 103.22C621.93 117.347 625.69 133.75 625.69 152.43C625.69 171.11 621.93 187.513 614.41 201.64C607.075 215.579 595.804 227.054 582 234.64C567.9 242.527 550.953 246.47 531.16 246.47ZM531.64 198.03C536.971 198.112 542.123 196.11 546 192.45C550.04 188.73 553.167 183.427 555.38 176.54C557.593 169.653 558.704 161.473 558.71 152C558.71 142.427 557.6 134.217 555.38 127.37C553.16 120.523 550.033 115.227 546 111.48C542.123 107.82 536.971 105.818 531.64 105.9C526.088 105.785 520.7 107.779 516.56 111.48C512.373 115.2 509.167 120.483 506.94 127.33C504.713 134.177 503.607 142.4 503.62 152C503.62 161.5 504.727 169.693 506.94 176.58C509.153 183.467 512.36 188.77 516.56 192.49C520.71 196.166 526.098 198.135 531.64 198V198.03Z" fill="#111515"/>
<path d="M666.66 246.46C685.626 246.46 701 231.085 701 212.12C701 193.155 685.626 177.78 666.66 177.78C647.695 177.78 632.32 193.155 632.32 212.12C632.32 231.085 647.695 246.46 666.66 246.46Z" fill="#878B8B"/>
<path d="M151.56 73.23L129.13 106.67C128.629 107.415 127.893 107.97 127.038 108.246C126.184 108.522 125.262 108.502 124.42 108.19C118.69 106.04 111.42 104.9 102.42 105.47C81.18 106.82 61.77 122.22 61.77 151.53V239.14C61.77 240.201 61.3486 241.218 60.5984 241.968C59.8483 242.719 58.8309 243.14 57.77 243.14H4C2.93913 243.14 1.92172 242.719 1.17157 241.968C0.421427 241.218 0 240.201 0 239.14V171.53C0 112.34 25.41 78.9 61.74 64.31C75.8656 58.6914 91.0038 56.0667 106.196 56.602C121.389 57.1374 136.305 60.8211 150 67.42C150.511 67.6715 150.962 68.0293 151.324 68.4693C151.685 68.9093 151.949 69.4215 152.097 69.9715C152.244 70.5215 152.273 71.0968 152.18 71.6587C152.088 72.2207 151.876 72.7564 151.56 73.23Z" fill="#111515"/>
<path d="M61.74 57.14V64.31C25.41 78.9 0 112.34 0 171.53V57.14C0 56.0791 0.421427 55.0617 1.17157 54.3116C1.92172 53.5614 2.93913 53.14 4 53.14H57.74C58.8009 53.14 59.8183 53.5614 60.5684 54.3116C61.3186 55.0617 61.74 56.0791 61.74 57.14Z" fill="#878B8B"/>
</svg>
