<svg width="144" height="144" viewBox="0 0 144 144" fill="none" xmlns="http://www.w3.org/2000/svg">
<g clip-path="url(#clip0_414_463)">
<path d="M144 0H0V144H144V0Z" fill="#999999"/>
<path d="M126.31 17.6904H17.6904V126.31H126.31V17.6904Z" fill="#999999"/>
<path d="M50.7501 89.88C50.5501 89.95 50.3301 90.02 50.1001 90.07C49.8701 90.13 49.6201 90.17 49.3701 90.21C49.1201 90.25 48.8701 90.27 48.6401 90.27C48.0701 90.27 47.5501 90.19 47.0801 90.02C46.6101 89.85 46.2101 89.59 45.8801 89.24C45.5501 88.89 45.2901 88.45 45.1001 87.9C44.9201 87.36 44.8301 86.72 44.8301 85.99C44.8301 85.35 44.9201 84.77 45.1101 84.25C45.3001 83.73 45.5701 83.29 45.9201 82.91C46.2701 82.54 46.6901 82.25 47.1901 82.05C47.6901 81.85 48.2401 81.75 48.8601 81.75C49.1901 81.75 49.5401 81.8 49.9301 81.89C50.3201 81.99 50.6801 82.12 51.0001 82.28L50.4101 83.53C50.0601 83.4 49.7601 83.3 49.5201 83.24C49.2701 83.18 49.0401 83.15 48.8201 83.15C48.5901 83.15 48.3401 83.19 48.0801 83.28C47.8201 83.36 47.5801 83.51 47.3601 83.72C47.1401 83.93 46.9601 84.21 46.8201 84.56C46.6801 84.91 46.6101 85.36 46.6101 85.89C46.6101 86.47 46.6601 86.96 46.7701 87.35C46.8801 87.74 47.0201 88.05 47.2101 88.28C47.3901 88.51 47.6101 88.67 47.8601 88.77C48.1101 88.87 48.3801 88.92 48.6701 88.92C48.8601 88.92 49.0201 88.92 49.1601 88.9C49.3001 88.89 49.4401 88.87 49.5701 88.85V86.1H51.2701V89.66C51.1301 89.73 50.9601 89.8 50.7601 89.86" fill="#1A1A1A"/>
<path d="M60.3904 83.6305C60.2104 83.4105 59.9304 83.3005 59.5304 83.3005H58.9004V85.4205H59.5304C59.8804 85.4205 60.1604 85.3405 60.3604 85.1705C60.5604 85.0005 60.6504 84.7505 60.6504 84.4105C60.6504 84.1105 60.5604 83.8505 60.3804 83.6305M59.5804 86.7405H58.8904V90.0705H57.1504V81.9805H59.5204C60.0004 81.9805 60.4204 82.0405 60.7804 82.1705C61.1404 82.3005 61.4404 82.4705 61.6904 82.6805C61.9304 82.8905 62.1104 83.1405 62.2404 83.4305C62.3604 83.7205 62.4204 84.0205 62.4204 84.3305C62.4204 84.5905 62.3804 84.8305 62.2904 85.0505C62.2104 85.2605 62.1004 85.4605 61.9704 85.6205C61.8404 85.7905 61.7004 85.9405 61.5504 86.0605C61.4004 86.1805 61.2504 86.2805 61.1104 86.3705L62.9904 89.9805L61.0404 90.2005L59.5804 86.7505V86.7405Z" fill="#1A1A1A"/>
<path d="M73.19 85.2597C73.16 84.9097 73.08 84.5797 72.96 84.2697C72.84 83.9597 72.66 83.6997 72.42 83.4897C72.18 83.2797 71.85 83.1697 71.44 83.1697C71.07 83.1697 70.78 83.2597 70.57 83.4397C70.36 83.6197 70.19 83.8397 70.08 84.0997C69.97 84.3597 69.89 84.6397 69.86 84.9397C69.83 85.2397 69.81 85.5197 69.81 85.7697C69.81 86.0497 69.83 86.3697 69.86 86.7297C69.89 87.0897 69.97 87.4297 70.09 87.7397C70.21 88.0497 70.39 88.3197 70.63 88.5397C70.86 88.7497 71.19 88.8597 71.6 88.8597C71.97 88.8597 72.26 88.7697 72.48 88.5897C72.7 88.4097 72.87 88.1797 72.98 87.9197C73.09 87.6497 73.17 87.3597 73.2 87.0597C73.23 86.7497 73.25 86.4697 73.25 86.2197C73.25 85.9397 73.23 85.6197 73.2 85.2697M74.81 87.7297C74.63 88.2497 74.39 88.6997 74.07 89.0797C73.76 89.4597 73.38 89.7497 72.95 89.9597C72.52 90.1697 72.05 90.2697 71.53 90.2697C70.91 90.2697 70.38 90.1497 69.94 89.9097C69.5 89.6697 69.14 89.3597 68.84 88.9597C68.55 88.5697 68.34 88.1097 68.2 87.5997C68.06 87.0897 68 86.5597 68 86.0097C68 85.3897 68.08 84.8197 68.26 84.2897C68.43 83.7597 68.68 83.3097 68.99 82.9297C69.3 82.5497 69.67 82.2597 70.11 82.0397C70.54 81.8297 71.01 81.7197 71.53 81.7197C72.15 81.7197 72.68 81.8397 73.13 82.0797C73.57 82.3197 73.94 82.6397 74.23 83.0397C74.52 83.4397 74.73 83.8997 74.87 84.4097C75.01 84.9297 75.08 85.4697 75.08 86.0197C75.08 86.6397 74.99 87.2097 74.81 87.7297Z" fill="#1A1A1A"/>
<path d="M86.9702 88.6105C86.7902 88.9705 86.5502 89.2605 86.2502 89.5005C85.9502 89.7405 85.6202 89.9205 85.2402 90.0505C84.8602 90.1805 84.4702 90.2405 84.0802 90.2405C83.6202 90.2405 83.2002 90.1705 82.8102 90.0405C82.4202 89.9005 82.0902 89.7105 81.8102 89.4605C81.5302 89.2105 81.3102 88.9105 81.1502 88.5605C80.9902 88.2105 80.9102 87.8105 80.9102 87.3705V81.9805H82.6502V87.4205C82.6502 87.7905 82.7802 88.1205 83.0302 88.4105C83.2802 88.7005 83.6402 88.8405 84.0802 88.8405C84.5202 88.8405 84.8702 88.7005 85.1202 88.4305C85.3702 88.1605 85.5002 87.8105 85.5002 87.3905V81.9805H87.2402V87.3705C87.2402 87.8405 87.1502 88.2505 86.9702 88.6105Z" fill="#1A1A1A"/>
<path d="M97.01 83.6097C96.82 83.4197 96.51 83.3197 96.09 83.3197H95.53V85.8097H95.95C96.41 85.8097 96.75 85.6897 96.97 85.4597C97.19 85.2297 97.3 84.8997 97.3 84.4897C97.3 84.0797 97.2 83.7997 97.01 83.6097ZM98.89 85.5297C98.74 85.8697 98.53 86.1497 98.26 86.3897C97.99 86.6297 97.66 86.8097 97.28 86.9397C96.9 87.0697 96.48 87.1397 96.02 87.1397H95.53V90.0597H93.79V81.9697H96.09C97.02 81.9697 97.75 82.1797 98.3 82.5997C98.84 83.0197 99.11 83.6097 99.11 84.3897C99.11 84.8097 99.03 85.1897 98.89 85.5297Z" fill="#1A1A1A"/>
<path d="M98.9398 53.8999H88.2598C88.1198 53.8999 88.0098 54.0099 88.0098 54.1399V72.1399C88.0098 72.2799 88.1198 72.3899 88.2598 72.3899H91.7498C91.8898 72.3899 91.9898 72.2799 91.9898 72.1399V64.6799H97.7498C97.8898 64.6799 97.9998 64.5699 97.9998 64.4299V61.7099C97.9998 61.5699 97.8898 61.4599 97.7498 61.4599H91.9898V57.0899H98.9398C99.0798 57.0899 99.1898 56.9799 99.1898 56.8399V54.1199C99.1898 53.9799 99.0798 53.8799 98.9398 53.8799" fill="#1A1A1A"/>
<path d="M80.8498 53.9004H76.8598C76.7498 53.9004 76.6598 53.9704 76.6298 54.0704L72.5498 66.8404L68.4598 54.0704C68.4298 53.9704 68.3298 53.9004 68.2298 53.9004H64.1398C64.0098 53.9004 63.9098 54.0004 63.8898 54.1304L62.5098 72.1304C62.5098 72.2004 62.5298 72.2704 62.5698 72.3204C62.6198 72.3704 62.6798 72.4004 62.7498 72.4004H66.1498C66.2798 72.4004 66.3898 72.3004 66.3998 72.1704L67.0198 60.8804L70.6198 72.2304C70.6498 72.3304 70.7498 72.4004 70.8498 72.4004H73.8998C74.0098 72.4004 74.0998 72.3304 74.1298 72.2304L77.7998 60.9104L78.3598 72.1704C78.3598 72.3004 78.4698 72.4004 78.6098 72.4004H82.0998C82.1698 72.4004 82.2298 72.3704 82.2798 72.3204C82.3298 72.2704 82.3498 72.2004 82.3498 72.1404L81.0998 54.1404C81.0998 54.0104 80.9898 53.9104 80.8598 53.9104" fill="#1A1A1A"/>
<path d="M59.4896 53.9004H45.0496C44.9096 53.9004 44.8096 54.0104 44.8096 54.1404V56.9604C44.8096 57.1004 44.9196 57.2104 45.0496 57.2104H50.2296V72.1504C50.2296 72.2904 50.3396 72.4004 50.4796 72.4004H53.9696C54.1096 72.4004 54.2096 72.2904 54.2096 72.1504V57.2104H59.4896C59.6296 57.2104 59.7396 57.1004 59.7396 56.9604V54.1404C59.7396 54.0004 59.6296 53.9004 59.4896 53.9004Z" fill="#1A1A1A"/>
</g>
<defs>
<clipPath id="clip0_414_463">
<rect width="144" height="144" fill="white"/>
</clipPath>
</defs>
</svg>
